<svg width="19" height="19" viewBox="0 0 19 19" fill="none" xmlns="http://www.w3.org/2000/svg">
<g clip-path="url(#clip0_5_947)">
<path d="M10.9486 3.61C10.9486 3.45 10.8986 3.32 10.7986 3.22C10.6986 3.12 10.5686 3.07 10.4086 3.07H4.76859C4.60859 3.07 4.47859 3.12 4.37859 3.22C4.27859 3.32 4.22859 3.45 4.22859 3.61V8.11C4.22859 8.27 4.27859 8.41 4.37859 8.53C4.47859 8.65 4.60859 8.71 4.76859 8.71H10.4086C10.5686 8.71 10.6986 8.65 10.7986 8.53C10.8986 8.41 10.9486 8.27 10.9486 8.11V3.61ZM9.80859 7.57H5.30859V4.21H9.80859V7.57ZM17.4286 4.21L15.1486 3.13C15.0286 3.05 14.8886 3.03 14.7286 3.07C14.5686 3.11 14.4586 3.2 14.3986 3.34C14.3386 3.48 14.3286 3.63 14.3686 3.79C14.4086 3.95 14.5086 4.05 14.6686 4.09L15.5086 4.57L15.4486 4.75C15.4486 5.11 15.5586 5.43 15.7786 5.71C15.9986 5.99 16.2686 6.19 16.5886 6.31V13.15C16.5886 13.31 16.5286 13.45 16.4086 13.57C16.2886 13.69 16.1586 13.75 16.0186 13.75C15.8786 13.75 15.7486 13.69 15.6286 13.57C15.5086 13.45 15.4486 13.31 15.4486 13.15V8.65C15.4486 8.01 15.2186 7.43 14.7586 6.91C14.2986 6.39 13.7886 6.07 13.2286 5.95V2.47C13.2286 1.87 13.0086 1.35 12.5686 0.91C12.1286 0.470001 11.6086 0.25 11.0086 0.25H4.22859C3.62859 0.25 3.09859 0.470001 2.63859 0.91C2.17859 1.35 1.94859 1.87 1.94859 2.47V15.07L1.16859 15.49C0.928594 15.61 0.808594 15.77 0.808594 15.97V17.65C0.808594 17.81 0.868594 17.95 0.988594 18.07C1.10859 18.19 1.24859 18.25 1.40859 18.25H13.7686C13.9286 18.25 14.0586 18.19 14.1586 18.07C14.2586 17.95 14.3086 17.81 14.3086 17.65V15.97C14.3086 15.77 14.2086 15.61 14.0086 15.49L13.2286 15.07V7.09C13.5086 7.21 13.7586 7.42 13.9786 7.72C14.1986 8.02 14.3086 8.33 14.3086 8.65V13.15C14.3086 13.63 14.4786 14.04 14.8186 14.38C15.1586 14.72 15.5586 14.89 16.0186 14.89C16.4786 14.89 16.8786 14.72 17.2186 14.38C17.5586 14.04 17.7286 13.63 17.7286 13.15V4.75C17.7286 4.51 17.6286 4.33 17.4286 4.21ZM13.2286 17.11H1.94859V16.33L2.78859 15.91C2.98859 15.83 3.08859 15.67 3.08859 15.43V2.47C3.08859 2.19 3.19859 1.94 3.41859 1.72C3.63859 1.5 3.90859 1.39 4.22859 1.39H11.0086C11.2886 1.39 11.5386 1.5 11.7586 1.72C11.9786 1.94 12.0886 2.19 12.0886 2.47V15.43C12.0886 15.67 12.1886 15.83 12.3886 15.91L13.2286 16.33V17.11Z" fill="white"/>
</g>
<defs>
<clipPath id="clip0_5_947">
<rect width="18" height="18" fill="white" transform="matrix(1 0 0 -1 0.269531 18.25)"/>
</clipPath>
</defs>
</svg>
