<svg width="110" height="111" viewBox="0 0 110 111" fill="none" xmlns="http://www.w3.org/2000/svg">
<path d="M17.1875 84.6375V26.1823C17.1875 14.3217 26.779 4.70679 38.6109 4.70679H25.5664C13.7008 4.70679 4.08203 14.3255 4.08203 26.1911V84.6287C4.08203 96.494 13.7008 106.113 25.5664 106.113H38.6109C26.779 106.113 17.1875 96.4981 17.1875 84.6375Z" fill="#CEE1F2"/>
<path d="M72.4023 104.916C70.1826 105.691 67.7967 106.113 65.3125 106.113H25.7812C13.9156 106.113 4.29688 96.494 4.29688 84.6287V26.1911C4.29688 14.3255 13.9156 4.70679 25.7812 4.70679H65.3125C77.1779 4.70679 86.7969 14.3255 86.7969 26.1911V48.7497M54.7852 82.6951H71.1133M21.4844 82.4802L25.4341 86.5713C27.1343 88.278 29.8912 88.278 31.5915 86.5713L39.7461 78.1833" stroke="#405FF2" stroke-width="5" stroke-miterlimit="10" stroke-linecap="round" stroke-linejoin="round"/>
<path d="M105.047 70.4728C100.32 68.6346 97.1951 68.3721 94.8535 68.3721C90.5029 68.3721 87.0117 71.8989 87.0117 76.2497C87.0117 80.6005 90.9148 84.1274 96.6917 84.1274C101.681 84.1274 105.703 87.6543 105.703 92.0051C105.703 96.3557 101.961 99.8828 97.6106 99.8828C95.5763 99.8828 91.0458 99.2223 86.582 97.4479M96.6797 68.3721V61.4255M96.6797 99.8826V106.113M57.793 58.2029V59.9216M34.1602 58.2029V59.9216" stroke="#FF5CF4" stroke-width="5" stroke-miterlimit="10" stroke-linecap="round" stroke-linejoin="round"/>
<path d="M68.5352 37.1482H68.1835C68.1734 37.1245 68.1661 37.1001 68.1557 37.0766L64.3038 28.5302C64.3002 28.5222 64.2967 28.5145 64.2931 28.5065C62.5023 24.5966 58.9291 21.7316 54.734 20.8428C52.2427 20.3152 49.1996 19.9607 45.8829 19.9607C42.6308 19.9607 39.6816 20.3027 37.2649 20.8119C33.0507 21.7001 29.4639 24.5676 27.6706 28.4827C27.6669 28.4906 27.6635 28.4986 27.6598 28.5065L23.7974 37.0764C23.7869 37.0998 23.7798 37.1243 23.7697 37.148H23.418C21.0448 37.148 19.1211 39.0717 19.1211 41.4448C19.1211 43.818 21.0448 45.7417 23.418 45.7417V49.7129C23.418 55.2236 27.8339 59.7068 33.2617 59.7068H58.6912C64.1193 59.7068 68.5352 55.2236 68.5352 49.7131V45.7419C70.9083 45.7419 72.832 43.8182 72.832 41.4451C72.832 39.0719 70.9083 37.1482 68.5352 37.1482ZM35.4885 32.0514C36.1541 30.6068 37.4799 29.5492 39.0369 29.2211C40.6093 28.8898 42.9015 28.5544 45.8831 28.5544C48.9326 28.5544 51.3212 28.9044 52.953 29.2501C54.4951 29.5769 55.811 30.6326 56.4755 32.0753L58.7617 37.1482H33.1914L35.4885 32.0514ZM35.0195 53.4763C32.1718 53.4763 29.8633 51.1678 29.8633 48.3201C29.8633 45.4723 32.1718 43.1638 35.0195 43.1638C37.8673 43.1638 40.1758 45.4723 40.1758 48.3201C40.1758 51.1678 37.8673 53.4763 35.0195 53.4763ZM56.9336 53.4763C54.0858 53.4763 51.7773 51.1678 51.7773 48.3201C51.7773 45.4723 54.0858 43.1638 56.9336 43.1638C59.7813 43.1638 62.0898 45.4723 62.0898 48.3201C62.0898 51.1678 59.7813 53.4763 56.9336 53.4763Z" fill="#FF5CF4"/>
</svg>
