<svg width="110" height="111" viewBox="0 0 110 111" fill="none" xmlns="http://www.w3.org/2000/svg">
<path d="M43.1686 15.2341C36.3829 15.2341 30.2324 19.2266 27.4699 25.4244L16.292 50.5029C9.59104 50.9633 4.29688 56.5413 4.29688 63.3591V76.2497C4.29688 82.1824 9.10636 86.9919 15.0391 86.9919H17.9835C17.9994 86.1652 18.0204 85.3387 18.0469 84.5122C17.3476 83.0867 16.9533 81.4844 16.9533 79.7895L16.7578 72.1677C16.7578 66.5311 17.9046 61.354 22.0885 60.5111C24.0773 60.1105 25.7424 58.7555 26.5573 56.8975L40.3605 25.4244C43.1228 19.2266 49.2733 15.2341 56.0592 15.2341H43.1686Z" fill="#CEE1F2"/>
<path d="M94.9609 86.9919C100.894 86.9919 105.703 82.1824 105.703 76.2497V63.3591C105.703 56.2398 99.9318 50.4685 92.8125 50.4685L79.5736 24.6604C76.6474 18.8787 70.7184 15.2341 64.2383 15.2341H43.1686C36.3829 15.2341 30.2324 19.2266 27.4699 25.4244L16.292 50.5029C9.59104 50.9633 4.29688 56.5413 4.29688 63.3591V76.2497C4.29688 82.1824 9.10636 86.9919 15.0391 86.9919" stroke="#405FF2" stroke-width="5" stroke-miterlimit="10" stroke-linecap="round" stroke-linejoin="round"/>
<path d="M38.0273 95.5857C42.7735 95.5857 46.6211 91.7381 46.6211 86.9919C46.6211 82.2457 42.7735 78.3982 38.0273 78.3982C33.2811 78.3982 29.4336 82.2457 29.4336 86.9919C29.4336 91.7381 33.2811 95.5857 38.0273 95.5857Z" stroke="#405FF2" stroke-width="5" stroke-miterlimit="10" stroke-linecap="round" stroke-linejoin="round"/>
<path d="M63.1646 86.9919H49.8438" stroke="#405FF2" stroke-width="5" stroke-miterlimit="10" stroke-linecap="round" stroke-linejoin="round"/>
<path d="M71.9727 95.5857C76.7189 95.5857 80.5664 91.7381 80.5664 86.9919C80.5664 82.2457 76.7189 78.3982 71.9727 78.3982C67.2265 78.3982 63.3789 82.2457 63.3789 86.9919C63.3789 91.7381 67.2265 95.5857 71.9727 95.5857Z" stroke="#405FF2" stroke-width="5" stroke-miterlimit="10" stroke-linecap="round" stroke-linejoin="round"/>
<path d="M51.5625 67.2263L63.5321 55.6198C65.9379 53.2686 64.2746 49.1811 60.9118 49.1811H49.9492C46.5803 49.1811 44.9199 45.0804 47.3384 42.7333L59.7345 30.7029" stroke="#FF5CF3" stroke-width="5" stroke-miterlimit="10" stroke-linecap="round" stroke-linejoin="round"/>
</svg>
