<svg width="61" height="61" viewBox="0 0 61 61" fill="none" xmlns="http://www.w3.org/2000/svg">
<g clip-path="url(#clip0_5_1078)">
<path d="M30.5 2.48364V7.17114" stroke="#FF5CF4" stroke-width="3" stroke-miterlimit="10" stroke-linecap="round" stroke-linejoin="round"/>
<path d="M49.25 2.48364L44.5625 7.17114" stroke="#FF5CF4" stroke-width="3" stroke-miterlimit="10" stroke-linecap="round" stroke-linejoin="round"/>
<path d="M15.9738 36.8005C14.8072 35.5454 14.0938 33.8634 14.0938 32.0148C14.0938 30.8862 14.3596 29.8198 14.8323 28.8745L19.5198 19.4995C20.6732 17.1927 23.0579 15.6086 25.8125 15.6086H18.7812C16.0266 15.6086 13.642 17.1927 12.4885 19.4995L7.80102 28.8745C7.3284 29.8198 7.0625 30.8862 7.0625 32.0148C7.0625 33.8634 7.77594 35.5454 8.94254 36.8005L27.0658 56.299C27.9218 57.22 29.1436 57.796 30.5 57.796C31.8564 57.796 33.0782 57.22 33.9342 56.2991L34.0156 56.2114L15.9738 36.8005Z" fill="#EEF1FB"/>
<path d="M48.5115 19.4995L53.199 28.8745C53.6716 29.8196 53.9375 30.8862 53.9375 32.0148C53.9375 33.8634 53.2241 35.5455 52.0575 36.8006L33.9342 56.2991C33.0782 57.22 31.8564 57.796 30.5 57.796C29.1436 57.796 27.9218 57.22 27.0658 56.2991L8.94254 36.8006C7.77594 35.5455 7.0625 33.8634 7.0625 32.0148C7.0625 30.8862 7.3284 29.8196 7.80102 28.8745L12.4885 19.4995C13.642 17.1926 16.0266 15.6086 18.7812 15.6086H42.2188C44.9734 15.6086 47.358 17.1926 48.5115 19.4995Z" stroke="#405FF2" stroke-width="3" stroke-miterlimit="10" stroke-linecap="round" stroke-linejoin="round"/>
<path d="M11.75 2.48364L16.4375 7.17114" stroke="#FF5CF4" stroke-width="3" stroke-miterlimit="10" stroke-linecap="round" stroke-linejoin="round"/>
<path d="M17.8867 29.6711H43.1169" stroke="#405FF2" stroke-width="3" stroke-miterlimit="10" stroke-linecap="round" stroke-linejoin="round"/>
<path d="M25.8125 24.9836L30.5 29.671L35.1875 24.9836" stroke="#405FF2" stroke-width="3" stroke-miterlimit="10" stroke-linecap="round" stroke-linejoin="round"/>
<path d="M30.5 43.7337V29.8705" stroke="#405FF2" stroke-width="3" stroke-miterlimit="10" stroke-linecap="round" stroke-linejoin="round"/>
</g>
<defs>
<clipPath id="clip0_5_1078">
<rect width="60" height="60" fill="white" transform="translate(0.5 0.139893)"/>
</clipPath>
</defs>
</svg>
