<svg width="61" height="61" viewBox="0 0 61 61" fill="none" xmlns="http://www.w3.org/2000/svg">
<path d="M24.0465 4.59302C20.3452 4.59302 16.9904 6.77072 15.4836 10.1513L9.38656 23.8305C5.73148 24.0817 2.84375 27.1242 2.84375 30.843V36.2337C2.84375 39.4697 5.46711 42.093 8.70312 42.093H10.3092C10.3179 41.6421 10.3293 41.1913 10.3438 40.7404C9.9623 39.9629 9.74727 39.0889 9.74727 38.1644L9.64062 34.0071C9.64062 30.9326 10.2662 29.7493 12.5483 29.2896C13.6331 29.071 14.5413 28.3319 14.9858 27.3185L22.5148 10.1513C24.0215 6.77072 27.3764 4.59302 31.0777 4.59302H24.0465Z" fill="#EEF1FB"/>
<path d="M8.70312 42.093C5.46711 42.093 2.84375 39.4697 2.84375 36.2337V30.843C2.84375 27.1242 5.73148 24.0817 9.38656 23.8305L15.4836 10.1513C16.9903 6.77072 20.3451 4.59302 24.0465 4.59302H34.7217C38.2441 4.59302 41.4692 6.5674 43.0711 9.70451L46.0859 15.6087M58.1562 30.843C58.1562 26.9598 55.0082 23.8118 51.125 23.8118H19.1328M28.7422 15.6087V4.71021M32.9609 42.093H27.6873M21.242 37.4055C18.6532 37.4055 16.5545 39.5042 16.5545 42.093C16.5545 44.6818 18.6532 46.7805 21.242 46.7805C23.8307 46.7805 25.9295 44.6818 25.9295 42.093C25.9295 39.5042 23.8309 37.4055 21.242 37.4055Z" stroke="#405FF2" stroke-width="3" stroke-miterlimit="10" stroke-linecap="round" stroke-linejoin="round"/>
<path d="M58.1562 41.7415C58.1562 46.2396 54.5097 49.9446 50.0117 49.9446C45.5136 49.9446 41.8671 46.2982 41.8671 41.8001C41.8671 37.3019 45.5722 33.6555 50.0703 33.6555M44.0351 48.2454L36.5938 55.6868" stroke="#FF5CF3" stroke-width="3" stroke-miterlimit="10" stroke-linecap="round" stroke-linejoin="round"/>
</svg>
