<svg width="15" height="15" viewBox="0 0 15 15" fill="none" xmlns="http://www.w3.org/2000/svg">
<path d="M7.54941 4.17578C9.39511 4.17578 10.9185 5.69922 10.9185 7.54492C10.9185 9.41992 9.39511 10.9141 7.54941 10.9141C5.67441 10.9141 4.18027 9.41992 4.18027 7.54492C4.18027 5.69922 5.67441 4.17578 7.54941 4.17578ZM7.54941 9.74219C8.75058 9.74219 9.71737 8.77539 9.71737 7.54492C9.71737 6.34375 8.75058 5.37695 7.54941 5.37695C6.31894 5.37695 5.35214 6.34375 5.35214 7.54492C5.35214 8.77539 6.34823 9.74219 7.54941 9.74219ZM11.8267 4.05859C11.8267 4.49805 11.4752 4.84961 11.0357 4.84961C10.5963 4.84961 10.2447 4.49805 10.2447 4.05859C10.2447 3.61914 10.5963 3.26758 11.0357 3.26758C11.4752 3.26758 11.8267 3.61914 11.8267 4.05859ZM14.0533 4.84961C14.1119 5.93359 14.1119 9.18555 14.0533 10.2695C13.9947 11.3242 13.7603 12.2324 12.9986 13.0234C12.2369 13.7852 11.2994 14.0195 10.2447 14.0781C9.16073 14.1367 5.90878 14.1367 4.8248 14.0781C3.77011 14.0195 2.86191 13.7852 2.07089 13.0234C1.30917 12.2324 1.0748 11.3242 1.0162 10.2695C0.957609 9.18555 0.957609 5.93359 1.0162 4.84961C1.0748 3.79492 1.30917 2.85742 2.07089 2.0957C2.86191 1.33398 3.77011 1.09961 4.8248 1.04102C5.90878 0.982422 9.16073 0.982422 10.2447 1.04102C11.2994 1.09961 12.2369 1.33398 12.9986 2.0957C13.7603 2.85742 13.9947 3.79492 14.0533 4.84961ZM12.6471 11.4121C12.9986 10.5625 12.9107 8.51172 12.9107 7.54492C12.9107 6.60742 12.9986 4.55664 12.6471 3.67773C12.4127 3.12109 11.9732 2.65234 11.4166 2.44727C10.5377 2.0957 8.48691 2.18359 7.54941 2.18359C6.58261 2.18359 4.53183 2.0957 3.68222 2.44727C3.09628 2.68164 2.65683 3.12109 2.42245 3.67773C2.07089 4.55664 2.15878 6.60742 2.15878 7.54492C2.15878 8.51172 2.07089 10.5625 2.42245 11.4121C2.65683 11.998 3.09628 12.4375 3.68222 12.6719C4.53183 13.0234 6.58261 12.9355 7.54941 12.9355C8.48691 12.9355 10.5377 13.0234 11.4166 12.6719C11.9732 12.4375 12.442 11.998 12.6471 11.4121Z" fill="#050B20"/>
<a href="https://www.figma.com/design/PzQUNVEIeMrv8HjdXbjYra?node-id=13-779">
<rect fill="black" fill-opacity="0" x="0.178312" y="-1.125" width="13.125" height="17.25"/>
</a>
</svg>
