<svg width="15" height="14" viewBox="0 0 15 14" fill="none" xmlns="http://www.w3.org/2000/svg">
<path d="M3.91659 13.1699H1.19198V4.41016H3.91659V13.1699ZM2.53964 3.23828C1.69003 3.23828 0.986906 2.50586 0.986906 1.62695C0.986906 0.777344 1.69003 0.0742188 2.53964 0.0742188C3.41855 0.0742188 4.12167 0.777344 4.12167 1.62695C4.12167 2.50586 3.41855 3.23828 2.53964 3.23828ZM14.0826 13.1699H11.3873V8.92188C11.3873 7.89648 11.358 6.60742 9.95175 6.60742C8.5455 6.60742 8.34042 7.69141 8.34042 8.83398V13.1699H5.61581V4.41016H8.22323V5.61133H8.25253C8.63339 4.9375 9.5123 4.20508 10.8307 4.20508C13.5846 4.20508 14.1119 6.02148 14.1119 8.36523V13.1699H14.0826Z" fill="#050B20"/>
<a href="https://www.figma.com/design/PzQUNVEIeMrv8HjdXbjYra?node-id=13-779">
<rect fill="black" fill-opacity="0" x="0.178312" y="-1.125" width="13.125" height="17.25"/>
</a>
</svg>
