<svg width="19" height="19" viewBox="0 0 19 19" fill="none" xmlns="http://www.w3.org/2000/svg">
<g clip-path="url(#clip0_5_944)">
<path d="M18.3789 10.87C18.3789 12.91 17.7789 14.73 16.5789 16.33C16.4589 16.49 16.2989 16.58 16.0989 16.6C15.8989 16.62 15.7189 16.57 15.5589 16.45C15.3989 16.33 15.3089 16.18 15.2889 16C15.2689 15.82 15.3189 15.65 15.4389 15.49C16.4789 14.13 16.9989 12.59 16.9989 10.87C16.9989 9.50996 16.6589 8.24996 15.9789 7.08996C15.2989 5.92996 14.3689 5.00996 13.1889 4.32996C12.0089 3.64996 10.7389 3.30996 9.37891 3.30996C8.01891 3.30996 6.74891 3.64996 5.56891 4.32996C4.38891 5.00996 3.45891 5.92996 2.77891 7.08996C2.09891 8.24996 1.75891 9.50996 1.75891 10.87C1.75891 12.59 2.27891 14.13 3.31891 15.49C3.43891 15.65 3.48891 15.82 3.46891 16C3.44891 16.18 3.35891 16.33 3.19891 16.45C3.03891 16.57 2.85891 16.62 2.65891 16.6C2.45891 16.58 2.29891 16.49 2.17891 16.33C0.978906 14.73 0.378906 12.91 0.378906 10.87C0.378906 9.26996 0.778906 7.77996 1.57891 6.39996C2.37891 5.01996 3.46891 3.92996 4.84891 3.12996C6.22891 2.32996 7.73891 1.92996 9.37891 1.92996C11.0189 1.92996 12.5289 2.32996 13.9089 3.12996C15.2889 3.92996 16.3789 5.01996 17.1789 6.39996C17.9789 7.77996 18.3789 9.26996 18.3789 10.87ZM13.8189 6.66996C13.9789 6.78996 14.0589 6.94996 14.0589 7.14996C14.0589 7.34996 13.9789 7.50996 13.8189 7.62996L11.5389 9.96996C11.7389 10.33 11.8389 10.71 11.8389 11.11C11.8389 11.79 11.5989 12.37 11.1189 12.85C10.6389 13.33 10.0589 13.57 9.37891 13.57C8.69891 13.57 8.11891 13.33 7.63891 12.85C7.15891 12.37 6.91891 11.79 6.91891 11.11C6.91891 10.43 7.15891 9.84996 7.63891 9.36996C8.11891 8.88996 8.69891 8.64996 9.37891 8.64996C9.77891 8.64996 10.1589 8.74996 10.5189 8.94996L12.8589 6.66996C12.9789 6.50996 13.1389 6.42996 13.3389 6.42996C13.5389 6.42996 13.6989 6.50996 13.8189 6.66996ZM10.4589 11.11C10.4589 10.83 10.3489 10.59 10.1289 10.39C9.90891 10.19 9.65891 10.09 9.37891 10.09C9.09891 10.09 8.84891 10.19 8.62891 10.39C8.40891 10.59 8.29891 10.83 8.29891 11.11C8.29891 11.39 8.40891 11.64 8.62891 11.86C8.84891 12.08 9.09891 12.19 9.37891 12.19C9.65891 12.19 9.90891 12.08 10.1289 11.86C10.3489 11.64 10.4589 11.39 10.4589 11.11Z" fill="white"/>
</g>
<defs>
<clipPath id="clip0_5_944">
<rect width="18" height="18" fill="white" transform="matrix(1 0 0 -1 0.378906 18.25)"/>
</clipPath>
</defs>
</svg>
