<svg width="14" height="15" viewBox="0 0 14 15" fill="none" xmlns="http://www.w3.org/2000/svg">
<path d="M13.6111 0.609985H5.05557C4.84061 0.609985 4.66667 0.783928 4.66667 0.998886C4.66667 1.21384 4.84061 1.38779 5.05557 1.38779H12.6723L0.113941 13.9462C-0.0379804 14.0981 -0.0379804 14.3442 0.113941 14.4961C0.189884 14.572 0.289415 14.61 0.38891 14.61C0.488405 14.61 0.5879 14.572 0.663879 14.4961L13.2222 1.93769V9.55446C13.2222 9.76942 13.3961 9.94336 13.6111 9.94336C13.8261 9.94336 14 9.76942 14 9.55446V0.998886C14 0.783928 13.826 0.609985 13.6111 0.609985Z" fill="white"/>
</svg>
