<svg width="19" height="19" viewBox="0 0 19 19" fill="none" xmlns="http://www.w3.org/2000/svg">
<path d="M3.89156 1.92995C3.33156 1.92995 2.85156 2.12995 2.45156 2.52995C2.05156 2.92995 1.85156 3.41995 1.85156 3.99995C1.85156 4.57995 2.05156 5.06995 2.45156 5.46995C2.85156 5.86995 3.33156 6.06995 3.89156 6.06995C4.45156 6.06995 4.93156 5.86995 5.33156 5.46995C5.73156 5.06995 5.93156 4.57995 5.93156 3.99995C5.93156 3.41995 5.73156 2.92995 5.33156 2.52995C4.93156 2.12995 4.45156 1.92995 3.89156 1.92995ZM3.89156 3.06995C4.13156 3.06995 4.35156 3.15995 4.55156 3.33995C4.75156 3.51995 4.85156 3.73995 4.85156 3.99995C4.85156 4.25995 4.75156 4.47995 4.55156 4.65995C4.35156 4.83995 4.13156 4.92995 3.89156 4.92995C3.65156 4.92995 3.43156 4.83995 3.23156 4.65995C3.03156 4.47995 2.93156 4.25995 2.93156 3.99995C2.93156 3.73995 3.03156 3.51995 3.23156 3.33995C3.43156 3.15995 3.65156 3.06995 3.89156 3.06995ZM3.89156 12.4299C3.33156 12.4299 2.85156 12.6299 2.45156 13.0299C2.05156 13.4299 1.85156 13.9199 1.85156 14.4999C1.85156 15.0799 2.05156 15.5699 2.45156 15.9699C2.85156 16.3699 3.33156 16.5699 3.89156 16.5699C4.45156 16.5699 4.93156 16.3699 5.33156 15.9699C5.73156 15.5699 5.93156 15.0799 5.93156 14.4999C5.93156 13.9199 5.73156 13.4299 5.33156 13.0299C4.93156 12.6299 4.45156 12.4299 3.89156 12.4299ZM3.89156 13.5699C4.13156 13.5699 4.35156 13.6599 4.55156 13.8399C4.75156 14.0199 4.85156 14.2399 4.85156 14.4999C4.85156 14.7599 4.75156 14.9799 4.55156 15.1599C4.35156 15.3399 4.13156 15.4299 3.89156 15.4299C3.65156 15.4299 3.43156 15.3399 3.23156 15.1599C3.03156 14.9799 2.93156 14.7599 2.93156 14.4999C2.93156 14.2399 3.03156 14.0199 3.23156 13.8399C3.43156 13.6599 3.65156 13.5699 3.89156 13.5699ZM9.89156 1.92995C9.33156 1.92995 8.85156 2.12995 8.45156 2.52995C8.05156 2.92995 7.85156 3.41995 7.85156 3.99995C7.85156 4.57995 8.05156 5.06995 8.45156 5.46995C8.85156 5.86995 9.33156 6.06995 9.89156 6.06995C10.4516 6.06995 10.9316 5.86995 11.3316 5.46995C11.7316 5.06995 11.9316 4.57995 11.9316 3.99995C11.9316 3.41995 11.7316 2.92995 11.3316 2.52995C10.9316 2.12995 10.4516 1.92995 9.89156 1.92995ZM9.89156 3.06995C10.1316 3.06995 10.3516 3.15995 10.5516 3.33995C10.7516 3.51995 10.8516 3.73995 10.8516 3.99995C10.8516 4.25995 10.7516 4.47995 10.5516 4.65995C10.3516 4.83995 10.1316 4.92995 9.89156 4.92995C9.65156 4.92995 9.43156 4.83995 9.23156 4.65995C9.03156 4.47995 8.93156 4.25995 8.93156 3.99995C8.93156 3.73995 9.03156 3.51995 9.23156 3.33995C9.43156 3.15995 9.65156 3.06995 9.89156 3.06995ZM9.89156 12.4299C9.33156 12.4299 8.85156 12.6299 8.45156 13.0299C8.05156 13.4299 7.85156 13.9199 7.85156 14.4999C7.85156 15.0799 8.05156 15.5699 8.45156 15.9699C8.85156 16.3699 9.33156 16.5699 9.89156 16.5699C10.4516 16.5699 10.9316 16.3699 11.3316 15.9699C11.7316 15.5699 11.9316 15.0799 11.9316 14.4999C11.9316 13.9199 11.7316 13.4299 11.3316 13.0299C10.9316 12.6299 10.4516 12.4299 9.89156 12.4299ZM9.89156 13.5699C10.1316 13.5699 10.3516 13.6599 10.5516 13.8399C10.7516 14.0199 10.8516 14.2399 10.8516 14.4999C10.8516 14.7599 10.7516 14.9799 10.5516 15.1599C10.3516 15.3399 10.1316 15.4299 9.89156 15.4299C9.65156 15.4299 9.43156 15.3399 9.23156 15.1599C9.03156 14.9799 8.93156 14.7599 8.93156 14.4999C8.93156 14.2399 9.03156 14.0199 9.23156 13.8399C9.43156 13.6599 9.65156 13.5699 9.89156 13.5699ZM15.8916 1.92995C15.3316 1.92995 14.8516 2.12995 14.4516 2.52995C14.0516 2.92995 13.8516 3.41995 13.8516 3.99995C13.8516 4.57995 14.0516 5.06995 14.4516 5.46995C14.8516 5.86995 15.3316 6.06995 15.8916 6.06995C16.4516 6.06995 16.9316 5.86995 17.3316 5.46995C17.7316 5.06995 17.9316 4.57995 17.9316 3.99995C17.9316 3.41995 17.7316 2.92995 17.3316 2.52995C16.9316 2.12995 16.4516 1.92995 15.8916 1.92995ZM15.8916 3.06995C16.1316 3.06995 16.3516 3.15995 16.5516 3.33995C16.7516 3.51995 16.8516 3.73995 16.8516 3.99995C16.8516 4.25995 16.7516 4.47995 16.5516 4.65995C16.3516 4.83995 16.1316 4.92995 15.8916 4.92995C15.6516 4.92995 15.4316 4.83995 15.2316 4.65995C15.0316 4.47995 14.9316 4.25995 14.9316 3.99995C14.9316 3.73995 15.0316 3.51995 15.2316 3.33995C15.4316 3.15995 15.6516 3.06995 15.8916 3.06995ZM15.8916 12.4299C15.3316 12.4299 14.8516 12.6299 14.4516 13.0299C14.0516 13.4299 13.8516 13.9199 13.8516 14.4999C13.8516 15.0799 14.0516 15.5699 14.4516 15.9699C14.8516 16.3699 15.3316 16.5699 15.8916 16.5699C16.4516 16.5699 16.9316 16.3699 17.3316 15.9699C17.7316 15.5699 17.9316 15.0799 17.9316 14.4999C17.9316 13.9199 17.7316 13.4299 17.3316 13.0299C16.9316 12.6299 16.4516 12.4299 15.8916 12.4299ZM15.8916 13.5699C16.1316 13.5699 16.3516 13.6599 16.5516 13.8399C16.7516 14.0199 16.8516 14.2399 16.8516 14.4999C16.8516 14.7599 16.7516 14.9799 16.5516 15.1599C16.3516 15.3399 16.1316 15.4299 15.8916 15.4299C15.6516 15.4299 15.4316 15.3399 15.2316 15.1599C15.0316 14.9799 14.9316 14.7599 14.9316 14.4999C14.9316 14.2399 15.0316 14.0199 15.2316 13.8399C15.4316 13.6599 15.6516 13.5699 15.8916 13.5699ZM3.35156 5.46995V12.9699C3.35156 13.1299 3.40156 13.2699 3.50156 13.3899C3.60156 13.5099 3.73156 13.5699 3.89156 13.5699C4.05156 13.5699 4.18156 13.5099 4.28156 13.3899C4.38156 13.2699 4.43156 13.1499 4.43156 13.0299V5.46995C4.43156 5.34995 4.38156 5.22995 4.28156 5.10995C4.18156 4.98995 4.05156 4.92995 3.89156 4.92995C3.73156 4.92995 3.60156 4.98995 3.50156 5.10995C3.40156 5.22995 3.35156 5.34995 3.35156 5.46995ZM9.35156 5.46995V12.9699C9.35156 13.1299 9.40156 13.2699 9.50156 13.3899C9.60156 13.5099 9.73156 13.5699 9.89156 13.5699C10.0516 13.5699 10.1816 13.5099 10.2816 13.3899C10.3816 13.2699 10.4316 13.1499 10.4316 13.0299V5.46995C10.4316 5.34995 10.3816 5.22995 10.2816 5.10995C10.1816 4.98995 10.0516 4.92995 9.89156 4.92995C9.73156 4.92995 9.60156 4.98995 9.50156 5.10995C9.40156 5.22995 9.35156 5.34995 9.35156 5.46995ZM15.3516 5.46995V8.46995C15.3516 8.54995 15.3316 8.60995 15.2916 8.64995C15.2516 8.68995 15.2116 8.70995 15.1716 8.70995H3.89156C3.73156 8.70995 3.60156 8.75995 3.50156 8.85995C3.40156 8.95995 3.35156 9.08995 3.35156 9.24995C3.35156 9.40995 3.40156 9.53995 3.50156 9.63995C3.60156 9.73995 3.73156 9.78995 3.89156 9.78995H15.1716C15.5316 9.78995 15.8316 9.66995 16.0716 9.42995C16.3116 9.18995 16.4316 8.86995 16.4316 8.46995V5.52995C16.4316 5.36995 16.3816 5.22995 16.2816 5.10995C16.1816 4.98995 16.0516 4.92995 15.8916 4.92995C15.7316 4.92995 15.6016 4.98995 15.5016 5.10995C15.4016 5.22995 15.3516 5.34995 15.3516 5.46995Z" fill="white"/>
</svg>
