<svg width="16" height="13" viewBox="0 0 16 13" fill="none" xmlns="http://www.w3.org/2000/svg">
<path d="M13.5137 3.49805C13.5137 3.64453 13.5137 3.76172 13.5137 3.9082C13.5137 7.98047 10.4375 12.6387 4.7832 12.6387C3.02539 12.6387 1.41406 12.1406 0.0664062 11.2617C0.300781 11.291 0.535156 11.3203 0.798828 11.3203C2.23438 11.3203 3.55273 10.8223 4.60742 10.002C3.25977 9.97266 2.11719 9.09375 1.73633 7.86328C1.94141 7.89258 2.11719 7.92188 2.32227 7.92188C2.58594 7.92188 2.87891 7.86328 3.11328 7.80469C1.70703 7.51172 0.652344 6.28125 0.652344 4.78711V4.75781C1.0625 4.99219 1.56055 5.10938 2.05859 5.13867C1.20898 4.58203 0.681641 3.64453 0.681641 2.58984C0.681641 2.00391 0.828125 1.47656 1.0918 1.03711C2.61523 2.88281 4.90039 4.11328 7.44922 4.25977C7.39062 4.02539 7.36133 3.79102 7.36133 3.55664C7.36133 1.85742 8.73828 0.480469 10.4375 0.480469C11.3164 0.480469 12.1074 0.832031 12.6934 1.44727C13.3672 1.30078 14.041 1.03711 14.627 0.685547C14.3926 1.41797 13.9238 2.00391 13.2793 2.38477C13.8945 2.32617 14.5098 2.15039 15.0371 1.91602C14.627 2.53125 14.0996 3.05859 13.5137 3.49805Z" fill="#050B20"/>
<a href="https://www.figma.com/design/PzQUNVEIeMrv8HjdXbjYra?node-id=13-779">
<rect fill="black" fill-opacity="0" x="0.1875" y="-1.125" width="15" height="17.25"/>
</a>
</svg>
